<?xml version="1.0" encoding="UTF-8"?>
<!-- Generator: Adobe Illustrator 16.0.0, SVG Export Plug-In . SVG Version: 6.00 Build 0)  -->
<!DOCTYPE svg PUBLIC "-//W3C//DTD SVG 1.1//EN" "http://www.w3.org/Graphics/SVG/1.1/DTD/svg11.dtd">
<svg version="1.1" id="Isolation_Mode" xmlns="http://www.w3.org/2000/svg" xmlns:xlink="http://www.w3.org/1999/xlink" x="0px" y="0px" width="254.665px" height="36.02px" viewBox="0 0 254.665 36.02" enable-background="new 0 0 254.665 36.02" xml:space="preserve">
<path fill="#5D9FD8" d="M19.25,17.549v5.986l16.748-6.104c-0.039-1.918-0.43-3.797-1.057-5.597l0,0  C31.537,2.483,21.206-2.33,11.854,1.074C2.502,4.479-2.311,14.81,1.093,24.162c2.583,7.121,9.352,11.856,16.904,11.856v-6.026  c-6.613,0-11.974-5.361-11.974-11.974c0-6.613,5.361-11.976,11.974-11.976c5.048,0,9.509,3.131,11.23,7.865L19.25,17.549z"/>
<path id="elemental.tv" fill="#5D9FD8" d="M56.203,11.485c-6.124,0-10.284,4.002-10.284,10.127c0,5.965,4.003,9.969,10.44,9.969  c3.219,0.158,6.36-1.178,8.557-3.455l-3.296-3.217c-1.257,1.256-2.905,1.961-4.711,2.039c-2.198,0.078-4.161-1.49-4.632-3.611  h13.817C66.566,16.038,63.112,11.485,56.203,11.485z M52.2,19.806c0.393-2.355,1.884-4.005,4.082-4.005  c2.277,0,3.769,1.57,3.769,4.005H52.2z M73.396,31.345V4.26h-6.281v27.085H73.396z M84.701,11.485  c-6.124,0-10.285,4.002-10.285,10.127c0,5.965,4.004,9.969,10.442,9.969c3.219,0.158,6.358-1.178,8.557-3.455l-3.298-3.217  c-1.255,1.256-2.904,1.961-4.709,2.039c-2.199,0.078-4.162-1.49-4.632-3.611h13.816C95.063,16.038,91.609,11.485,84.701,11.485  L84.701,11.485z M80.618,19.806c0.393-2.355,1.885-4.005,4.083-4.005c2.277,0,3.768,1.57,3.768,4.005H80.618L80.618,19.806z   M121.677,11.405c-2.983-0.158-5.809,1.648-6.908,4.477c-0.943-2.75-3.612-4.635-6.595-4.477c-2.905,0-5.181,1.178-6.516,3.533  V11.72h-6.281v19.625h6.281v-9.732c0-2.67,1.491-4.633,3.925-4.633c2.119,0,3.375,1.414,3.375,3.77v10.674h6.281V21.69  c0-2.67,1.491-4.633,3.846-4.633c2.12,0,3.375,1.414,3.375,3.768v10.676h6.281V19.099C128.743,14.31,125.995,11.405,121.677,11.405  L121.677,11.405z M139.654,11.485c-6.122,0-10.284,4.002-10.284,10.127c0,5.965,4.004,9.969,10.441,9.969  c3.221,0.158,6.359-1.178,8.557-3.455l-3.296-3.217c-1.258,1.256-2.905,1.961-4.712,2.039c-2.197,0.078-4.16-1.49-4.631-3.611  h13.816C150.017,16.038,146.563,11.485,139.654,11.485z M135.65,19.806c0.394-2.355,1.886-4.005,4.082-4.005  c2.276,0,3.771,1.57,3.771,4.005H135.65L135.65,19.806z M163.599,11.405c-2.904,0-5.183,1.178-6.595,3.533V11.72h-6.28v19.625h6.28  V20.983c0.236-2.355,1.728-4.004,4.004-4.004c2.119,0,3.453,1.414,3.453,3.688v10.676h6.281V18.942  C170.82,14.31,167.995,11.405,163.599,11.405L163.599,11.405z M184.401,25.929c-0.783,0.393-1.568,0.629-2.434,0.629  c-1.178,0-1.805-0.629-1.805-2.121v-7.693h5.182v-4.16h-5.182V7.167h-6.279v5.494h-2.748v4.16h2.748v8.715  c0,4.082,2.746,6.203,6.515,6.203c1.806,0,3.69-0.473,5.261-1.336L184.401,25.929z M197.042,11.405  c-3.141,0-6.279,0.785-9.105,2.199l1.807,4.16c1.805-0.943,3.846-1.57,5.887-1.648c2.592,0,3.848,1.178,3.848,3.061v0.314h-5.182  c-4.867,0-7.537,2.199-7.537,5.967c0,3.611,2.592,6.203,6.752,6.203c2.669,0,4.711-0.865,6.045-2.592v2.274h6.201V18.472  C205.6,14.075,202.459,11.405,197.042,11.405z M195.393,27.343c-1.727,0-2.747-0.942-2.747-2.354c0-1.492,0.94-2.119,2.825-2.119  h4.005v1.725C199.004,26.243,197.354,27.343,195.393,27.343L195.393,27.343z M213.999,31.345V4.26h-6.279v27.085H213.999  L213.999,31.345z M218.553,25.536c-1.649,0-3.063,1.334-3.063,3.063c0,1.647,1.334,3.063,3.063,3.063  c1.648,0,3.061-1.336,3.061-3.063C221.613,26.948,220.279,25.536,218.553,25.536L218.553,25.536L218.553,25.536z M233.627,25.929  c-0.787,0.393-1.571,0.629-2.437,0.629c-1.178,0-1.806-0.629-1.806-2.121v-7.693h5.182v-4.16h-5.182V7.167h-6.279v5.494h-2.749v4.16  h2.749v8.715c0,4.082,2.747,6.203,6.516,6.203c1.807,0,3.689-0.473,5.262-1.336L233.627,25.929z M247.286,31.345l7.379-19.625  h-6.278l-4.241,13.895l-4.238-13.895h-6.517l7.379,19.625H247.286L247.286,31.345z"/>
</svg>